<global>
amp_veltrack=0
ampeg_release=0.35

<group>
group_label=PP
seq_length=1
seq_position=1
xf_cccurve=gain
xfin_hicc1=42
xfin_locc1=0
xfout_hicc1=85
xfout_locc1=42

<region>
hikey=g5
hivel=127
lokey=f#5
loop_end=308522
loop_mode=loop_continuous
loop_start=76372
loop_xfade=23062
lovel=0
offset=15584
pitch_keycenter=g5
sample=Violins2_trill_perf5th_PP_G5.opus

<region>
hikey=g4
hivel=127
lokey=f#4
loop_end=308522
loop_mode=loop_continuous
loop_start=76372
loop_xfade=23062
lovel=0
offset=12644
pitch_keycenter=g4
sample=Violins2_trill_perf5th_PP_G4.opus

<region>
hivel=127
key=g3
loop_end=308522
loop_mode=loop_continuous
loop_start=76372
loop_xfade=23062
lovel=0
offset=18655
sample=Violins2_trill_perf5th_PP_G3.opus

<region>
hikey=f6
hivel=127
lokey=e6
loop_end=308522
loop_mode=loop_continuous
loop_start=76372
loop_xfade=23062
lovel=0
offset=16011
pitch_keycenter=F6
sample=Violins2_trill_perf5th_PP_F6.opus

<region>
hikey=f5
hivel=127
lokey=e5
loop_end=308522
loop_mode=loop_continuous
loop_start=76372
loop_xfade=23062
lovel=0
offset=14747
pitch_keycenter=f5
sample=Violins2_trill_perf5th_PP_F5.opus

<region>
hikey=f4
hivel=127
lokey=e4
loop_end=308522
loop_mode=loop_continuous
loop_start=76372
loop_xfade=23062
lovel=0
offset=17832
pitch_keycenter=f4
sample=Violins2_trill_perf5th_PP_F4.opus

<region>
hikey=d#6
hivel=127
lokey=d6
loop_end=308522
loop_mode=loop_continuous
loop_start=76372
loop_xfade=23062
lovel=0
offset=13394
pitch_keycenter=d#6
sample=Violins2_trill_perf5th_PP_D#6.opus

<region>
hikey=d#5
hivel=127
lokey=d5
loop_end=308522
loop_mode=loop_continuous
loop_start=76372
loop_xfade=23062
lovel=0
offset=17309
pitch_keycenter=d#5
sample=Violins2_trill_perf5th_PP_D#5.opus

<region>
hikey=d#4
hivel=127
lokey=d4
loop_end=308522
loop_mode=loop_continuous
loop_start=76372
loop_xfade=23062
lovel=0
offset=17207
pitch_keycenter=d#4
sample=Violins2_trill_perf5th_PP_D#4.opus

<region>
hikey=c#6
hivel=127
lokey=c6
loop_end=308522
loop_mode=loop_continuous
loop_start=76372
loop_xfade=23062
lovel=0
offset=12577
pitch_keycenter=c#6
sample=Violins2_trill_perf5th_PP_C#6.opus

<region>
hikey=c#5
hivel=127
lokey=c5
loop_end=306362
loop_mode=loop_continuous
loop_start=75837
loop_xfade=22901
lovel=0
offset=16069
pitch_keycenter=c#5
sample=Violins2_trill_perf5th_PP_C#5.opus

<region>
hikey=c#4
hivel=127
lokey=c4
loop_end=259016
loop_mode=loop_continuous
loop_start=64117
loop_xfade=19361
lovel=0
offset=4642
pitch_keycenter=c#4
sample=Violins2_trill_perf5th_PP_C#4.opus

<region>
hikey=b5
hivel=127
lokey=a#5
loop_end=308522
loop_mode=loop_continuous
loop_start=76372
loop_xfade=23062
lovel=0
offset=21152
pitch_keycenter=b5
sample=Violins2_trill_perf5th_PP_B5.opus

<region>
hikey=b4
hivel=127
lokey=a#4
loop_end=308522
loop_mode=loop_continuous
loop_start=76372
loop_xfade=23062
lovel=0
offset=18367
pitch_keycenter=b4
sample=Violins2_trill_perf5th_PP_B4.opus

<region>
hikey=b3
hivel=127
lokey=a#3
loop_end=308221
loop_mode=loop_continuous
loop_start=76298
loop_xfade=23039
lovel=0
offset=15570
pitch_keycenter=b3
sample=Violins2_trill_perf5th_PP_B3.opus

<region>
hikey=a5
hivel=127
lokey=g#5
loop_end=308522
loop_mode=loop_continuous
loop_start=76372
loop_xfade=23062
lovel=0
offset=15523
pitch_keycenter=a5
sample=Violins2_trill_perf5th_PP_A5.opus

<region>
hikey=a4
hivel=127
lokey=g#4
loop_end=308327
loop_mode=loop_continuous
loop_start=76324
loop_xfade=23047
lovel=0
offset=17605
pitch_keycenter=a4
sample=Violins2_trill_perf5th_PP_A4.opus

<region>
hikey=a3
hivel=127
lokey=g#3
loop_end=306656
loop_mode=loop_continuous
loop_start=75910
loop_xfade=22922
lovel=0
offset=12237
pitch_keycenter=a3
sample=Violins2_trill_perf5th_PP_A3.opus

<group>
group_label=MF
seq_length=1
seq_position=1
xf_cccurve=gain
xfin_hicc1=85
xfin_locc1=42
xfout_hicc1=127
xfout_locc1=85

<region>
hikey=g5
hivel=127
lokey=f#5
loop_end=267169
loop_mode=loop_continuous
loop_start=66135
loop_xfade=19971
lovel=0
offset=488
pitch_keycenter=g5
sample=Violins2_trill_perf5th_MF_G5.opus

<region>
hikey=g4
hivel=127
lokey=f#4
loop_end=264126
loop_mode=loop_continuous
loop_start=65382
loop_xfade=19743
lovel=0
offset=2428
pitch_keycenter=g4
sample=Violins2_trill_perf5th_MF_G4.opus

<region>
hivel=127
key=g3
loop_end=265557
loop_mode=loop_continuous
loop_start=65736
loop_xfade=19850
lovel=0
offset=1728
sample=Violins2_trill_perf5th_MF_G3.opus

<region>
hikey=f6
hivel=127
lokey=e6
loop_end=267124
loop_mode=loop_continuous
loop_start=66124
loop_xfade=19967
lovel=0
offset=951
pitch_keycenter=F6
sample=Violins2_trill_perf5th_MF_F6.opus

<region>
hikey=f5
hivel=127
lokey=e5
loop_end=263934
loop_mode=loop_continuous
loop_start=65334
loop_xfade=19729
lovel=0
offset=816
pitch_keycenter=f5
sample=Violins2_trill_perf5th_MF_F5.opus

<region>
hikey=f4
hivel=127
lokey=e4
loop_end=263316
loop_mode=loop_continuous
loop_start=65181
loop_xfade=19683
lovel=0
offset=146
pitch_keycenter=f4
sample=Violins2_trill_perf5th_MF_F4.opus

<region>
hikey=d#6
hivel=127
lokey=d6
loop_end=263567
loop_mode=loop_continuous
loop_start=65244
loop_xfade=19701
lovel=0
offset=263
pitch_keycenter=d#6
sample=Violins2_trill_perf5th_MF_D#6.opus

<region>
hikey=d#5
hivel=127
lokey=d5
loop_end=262154
loop_mode=loop_continuous
loop_start=64894
loop_xfade=19596
lovel=0
offset=1766
pitch_keycenter=d#5
sample=Violins2_trill_perf5th_MF_D#5.opus

<region>
hikey=d#4
hivel=127
lokey=d4
loop_end=259213
loop_mode=loop_continuous
loop_start=64166
loop_xfade=19376
lovel=0
offset=3778
pitch_keycenter=d#4
sample=Violins2_trill_perf5th_MF_D#4.opus

<region>
hikey=c#6
hivel=127
lokey=c6
loop_end=267688
loop_mode=loop_continuous
loop_start=66264
loop_xfade=20010
lovel=0
pitch_keycenter=c#6
sample=Violins2_trill_perf5th_MF_C#6.opus

<region>
hikey=c#5
hivel=127
lokey=c5
loop_end=266677
loop_mode=loop_continuous
loop_start=66014
loop_xfade=19934
lovel=0
offset=40
pitch_keycenter=c#5
sample=Violins2_trill_perf5th_MF_C#5.opus

<region>
hikey=c#4
hivel=127
lokey=c4
loop_end=264479
loop_mode=loop_continuous
loop_start=65470
loop_xfade=19770
lovel=0
offset=1262
pitch_keycenter=c#4
sample=Violins2_trill_perf5th_MF_C#4.opus

<region>
hikey=b5
hivel=127
lokey=a#5
loop_end=266150
loop_mode=loop_continuous
loop_start=65883
loop_xfade=19895
lovel=0
offset=2040
pitch_keycenter=b5
sample=Violins2_trill_perf5th_MF_B5.opus

<region>
hikey=b4
hivel=127
lokey=a#4
loop_end=263488
loop_mode=loop_continuous
loop_start=65224
loop_xfade=19696
lovel=0
offset=1573
pitch_keycenter=b4
sample=Violins2_trill_perf5th_MF_B4.opus

<region>
hikey=b3
hivel=127
lokey=a#3
loop_end=267063
loop_mode=loop_continuous
loop_start=66109
loop_xfade=19963
lovel=0
offset=1732
pitch_keycenter=b3
sample=Violins2_trill_perf5th_MF_B3.opus

<region>
hikey=a5
hivel=127
lokey=g#5
loop_end=267319
loop_mode=loop_continuous
loop_start=66172
loop_xfade=19982
lovel=0
offset=2055
pitch_keycenter=a5
sample=Violins2_trill_perf5th_MF_A5.opus

<region>
hikey=a4
hivel=127
lokey=g#4
loop_end=267529
loop_mode=loop_continuous
loop_start=66224
loop_xfade=19998
lovel=0
offset=733
pitch_keycenter=a4
sample=Violins2_trill_perf5th_MF_A4.opus

<region>
hikey=a3
hivel=127
lokey=g#3
loop_end=262056
loop_mode=loop_continuous
loop_start=64870
loop_xfade=19589
lovel=0
offset=1432
pitch_keycenter=a3
sample=Violins2_trill_perf5th_MF_A3.opus

<group>
group_label=FF
seq_length=1
seq_position=1
xf_cccurve=gain
xfin_hicc1=127
xfin_locc1=85
xfout_hicc1=127
xfout_locc1=127

<region>
hikey=g5
hivel=127
lokey=f#5
loop_end=262168
loop_mode=loop_continuous
loop_start=64897
loop_xfade=19597
lovel=0
offset=837
pitch_keycenter=g5
sample=Violins2_trill_perf5th_FF_G5.opus

<region>
hikey=g4
hivel=127
lokey=f#4
loop_end=260036
loop_mode=loop_continuous
loop_start=64370
loop_xfade=19438
lovel=0
offset=1644
pitch_keycenter=g4
sample=Violins2_trill_perf5th_FF_G4.opus

<region>
hivel=127
key=g3
loop_end=260350
loop_mode=loop_continuous
loop_start=64447
loop_xfade=19461
lovel=0
offset=637
sample=Violins2_trill_perf5th_FF_G3.opus

<region>
hikey=f6
hivel=127
lokey=e6
loop_end=266833
loop_mode=loop_continuous
loop_start=66052
loop_xfade=19946
lovel=0
offset=2224
pitch_keycenter=F6
sample=Violins2_trill_perf5th_FF_F6.opus

<region>
hikey=f5
hivel=127
lokey=e5
loop_end=260634
loop_mode=loop_continuous
loop_start=64518
loop_xfade=19482
lovel=0
offset=370
pitch_keycenter=f5
sample=Violins2_trill_perf5th_FF_F5.opus

<region>
hikey=f4
hivel=127
lokey=e4
loop_end=269344
loop_mode=loop_continuous
loop_start=66674
loop_xfade=20133
lovel=0
offset=1072
pitch_keycenter=f4
sample=Violins2_trill_perf5th_FF_F4.opus

<region>
hikey=d#6
hivel=127
lokey=d6
loop_end=260982
loop_mode=loop_continuous
loop_start=64604
loop_xfade=19508
lovel=0
offset=622
pitch_keycenter=d#6
sample=Violins2_trill_perf5th_FF_D#6.opus

<region>
hikey=d#5
hivel=127
lokey=d5
loop_end=256060
loop_mode=loop_continuous
loop_start=63385
loop_xfade=19140
lovel=0
offset=918
pitch_keycenter=d#5
sample=Violins2_trill_perf5th_FF_D#5.opus

<region>
hikey=d#4
hivel=127
lokey=d4
loop_end=265311
loop_mode=loop_continuous
loop_start=65676
loop_xfade=19832
lovel=0
offset=900
pitch_keycenter=d#4
sample=Violins2_trill_perf5th_FF_D#4.opus

<region>
hikey=c#6
hivel=127
lokey=c6
loop_end=266651
loop_mode=loop_continuous
loop_start=66007
loop_xfade=19932
lovel=0
pitch_keycenter=c#6
sample=Violins2_trill_perf5th_FF_C#6.opus

<region>
hikey=c#5
hivel=127
lokey=c5
loop_end=263994
loop_mode=loop_continuous
loop_start=65349
loop_xfade=19733
lovel=0
offset=2812
pitch_keycenter=c#5
sample=Violins2_trill_perf5th_FF_C#5.opus

<region>
hikey=c#4
hivel=127
lokey=c4
loop_end=268510
loop_mode=loop_continuous
loop_start=66467
loop_xfade=20071
lovel=0
offset=211
pitch_keycenter=c#4
sample=Violins2_trill_perf5th_FF_C#4.opus

<region>
hikey=b5
hivel=127
lokey=a#5
loop_end=269039
loop_mode=loop_continuous
loop_start=66598
loop_xfade=20111
lovel=0
offset=1886
pitch_keycenter=b5
sample=Violins2_trill_perf5th_FF_B5.opus

<region>
hikey=b4
hivel=127
lokey=a#4
loop_end=267635
loop_mode=loop_continuous
loop_start=66251
loop_xfade=20006
lovel=0
offset=247
pitch_keycenter=b4
sample=Violins2_trill_perf5th_FF_B4.opus

<region>
hikey=b3
hivel=127
lokey=a#3
loop_end=261174
loop_mode=loop_continuous
loop_start=64651
loop_xfade=19523
lovel=0
offset=527
pitch_keycenter=b3
sample=Violins2_trill_perf5th_FF_B3.opus

<region>
hikey=a5
hivel=127
lokey=g#5
loop_end=260308
loop_mode=loop_continuous
loop_start=64437
loop_xfade=19458
lovel=0
offset=2464
pitch_keycenter=a5
sample=Violins2_trill_perf5th_FF_A5.opus

<region>
hikey=a4
hivel=127
lokey=g#4
loop_end=260588
loop_mode=loop_continuous
loop_start=64506
loop_xfade=19479
lovel=0
pitch_keycenter=a4
sample=Violins2_trill_perf5th_FF_A4.opus

<region>
hikey=a3
hivel=127
lokey=g#3
loop_end=254188
loop_mode=loop_continuous
loop_start=62922
loop_xfade=19000
lovel=0
offset=119
pitch_keycenter=a3
sample=Violins2_trill_perf5th_FF_A3.opus

